<svg height="200" viewBox="0 0 1057 1024" width="206.445313" xmlns="http://www.w3.org/2000/svg"><g fill="#fff"><path d="m542.609892 41.84086c-10.570323 55.494194-36.996129 99.537204-135.652473 220.215054-50.209032 62.541075-100.418065 132.129032-110.107527 154.150538-26.425806 61.660215-29.068387 135.652473-6.166021 195.550967 10.570323 28.187527 21.140645 51.089892 24.664086 51.089893 3.523441 0 6.166022-29.068387 7.046882-64.302796 0-89.847742 20.259785-125.963011 130.367312-235.189677 106.584086-104.822366 137.414193-157.673979 137.414193-230.785377-.88086-30.830108-7.927742-59.898495-21.140645-85.44344l-20.259785-38.75785z"/><path d="m832.412903 225.940645c-22.902366 34.353548-75.753978 66.064516-182.338064 107.464946-192.908387 74.873118-251.045161 113.630968-288.922151 192.908387-20.259785 42.28129-34.353548 141.818495-17.617204 132.129033 4.404301-2.642581 8.808602-11.451183 8.808602-18.498065 0-49.328172 112.750108-151.507957 184.099785-166.48258 231.666237-49.328172 310.943656-106.584086 320.633118-229.904517 3.523441-43.162151-4.404301-49.328172-24.664086-17.617204z"/><path d="m532.92043 512.220215c-64.302796 15.855484-110.107527 47.566452-152.388817 105.703226-30.830108 42.28129-30.830108 58.136774.88086 29.949247 68.707097-64.302796 148.865376-73.992258 305.658495-37.876989 184.099785 43.162151 279.232688 19.378925 332.084301-82.80086 12.332043-23.783226 12.332043-24.664086-1.761721-19.378925-62.541075 23.783226-192.027527 28.187527-268.662365 9.689462-34.353548-7.927742-186.742366-11.451183-215.810753-5.285161zm-479.187957 46.685591-30.830107 8.808603 28.187526 13.212903c47.566452 22.902366 86.324301 66.945376 164.720861 186.742365 117.154409 180.576344 175.291183 224.619355 292.445591 224.619355 38.757849 0 68.707097-4.404301 74.873118-10.570322 7.927742-7.927742 3.523441-10.570323-21.140645-10.570323-36.115269 0-98.656344-26.425806-130.367312-54.613333-34.353548-30.830108-60.779355-72.230538-106.584086-166.482581-22.902366-46.685591-54.613333-99.537204-70.468817-117.154408-55.494194-64.302796-133.890753-92.490323-200.836129-73.992259z"/><path d="m481.830538 620.566022c-38.757849 7.927742-103.060645 39.63871-103.060646 50.209032 0 14.093763 11.451183 17.617204 22.902366 5.285161 7.927742-7.927742 29.068387-11.451183 63.421936-9.689462 70.468817 2.642581 129.486452 33.472688 221.976774 114.511828 91.609462 81.039139 143.580215 110.988387 207.00215 117.154408 40.51957 4.404301 55.494194.88086 96.894624-19.378924 51.970753-24.664086 54.613333-32.591828 14.974624-36.99613-57.255914-7.046882-147.103656-50.209032-136.533334-66.945376 2.642581-5.285161.88086-6.166022-4.404301-2.642581-6.166022 3.523441-52.851613-22.902366-104.822365-59.017634-123.32043-85.443441-199.074409-110.107527-278.351828-92.490322z"/></g></svg>